<svg data-name="Layer 1" xmlns="http://www.w3.org/2000/svg" width="842" height="678.4" viewBox="0 0 842 678">
  <ellipse cx="426" cy="645.9" rx="416" ry="32.5" fill="#3f3d56"/>
  <path fill="#a0616a" d="m779 586 4 28-27 3 4-35 19 4zM651 193l2 36-18 91s-26 50 0 48 18-46 18-46l28-76-12-53Zm43 393-4 28 27 3-4-35-19 4z"/>
  <path d="m664 318-7 9s-4 39 0 52 12 73 12 77v7c-1 1-5 2-3 4s3 11 3 11v6l17 96s-11 12-3 12 37 0 35-13l-2-1s-4-86-3-90v-12s-3-4 0-5 3-12 3-12l11-79s11 53 17 59 5 18 5 18l6 114s-6 13 0 16 27 11 28-1l8-132v-15c1 0-3-4-3-7v-64l3-15v-9c1-4-3-17-3-17l-58-16Zm45 291s7-7-2-7a42 42 0 0 0-17 4l-7 24s-26 21 3 19l26-1s9-3 10-5-2-41-2-41-4 11-11 7Zm56 0s-6-7 3-7a42 42 0 0 1 17 4l6 24s27 21-3 19l-29-1s-10-3-11-5 7-41 7-41 4 11 10 7Z" fill="#2f2e41"/>
  <circle cx="680.6" cy="56.5" r="33.8" fill="#a0616a"/>
  <path d="m669 81 5 30c0 4 22 16 22 16l25-31s-16-23-16-28Z" fill="#a0616a"/>
  <path d="M688 115s-11-3-14-8c0 0-36 35-36 42l28 50s0 19 3 20 0 0 0 5-8 39-5 44 5 2 2 9-9 50-9 50 24-8 57 5 74-5 74-5-10-24-7-31-7-22-7-22l-6-120s9-53 2-56l-13-5-41-5s-11 26-28 27Z" fill="#d0cde1"/>
  <path d="m651 140-13 9s-7 19 0 28 9 22 9 22l26-2Z" fill="#d0cde1"/>
  <path d="m655 21-6-3s12-13 29-12l-5-5s12-5 23 8c5 6 12 14 16 22h6l-2 6 9 6-10-1a32 32 0 0 1-1 15l1 4s-11-17-11-19v6s-6-5-6-9l-3 4-2-6-20 6 4-5-13 2 5-7s-14 8-14 14c-1 7-8 15-8 15l-3-6s-5-26 11-35Z" fill="#2f2e41"/>
  <path fill="#f2f2f2" d="M146 283h517v363H146z"/>
  <path fill="#3f3d56" d="M190 421h130v226H190z"/>
  <path fill="#f2f2f2" d="M214 435h35v33h-35zm46 0h35v33h-35zm-46 44h35v34h-35zm46 0h35v34h-35z"/>
  <circle cx="302.8" cy="549.7" r="8.2" fill="#9b96e3"/>
  <path fill="#3f3d56" d="M363 400h256v215H363zm354-49H92l42-87 9-19 12-26 10-19 10-23h492l7 23 5 19 7 26 6 19 25 87z"/>
  <path fill="#9b96e3" d="M372 489h9v56h-9z"/>
  <path fill="#f2f2f2" d="M372 497h9v7h-9zm0 32h9v7h-9z"/>
  <path fill="#9b96e3" d="M385 489h22v56h-22z"/>
  <path fill="#f2f2f2" d="M385 497h22v7h-22zm0 32h22v7h-22z"/>
  <path fill="#9b96e3" d="M412 489h9v56h-9z"/>
  <path fill="#f2f2f2" d="M412 497h9v7h-9zm0 32h9v7h-9z"/>
  <path fill="#9b96e3" d="M426 489h9v56h-9z"/>
  <path fill="#f2f2f2" d="M426 497h9v7h-9zm0 32h9v7h-9z"/>
  <path fill="#9b96e3" d="m436 492 8-3 20 53-9 3z"/>
  <path fill="#f2f2f2" d="m438 500 8-3 3 6-8 3zm11 30 8-3 3 6-8 4z"/>
  <path fill="#9b96e3" d="M589 489h22v56h-22z"/>
  <path fill="#f2f2f2" d="M589 497h22v7h-22zm0 32h22v7h-22z"/>
  <path fill="#9b96e3" d="M575 489h9v56h-9z"/>
  <path fill="#f2f2f2" d="M575 497h9v7h-9zm0 32h9v7h-9z"/>
  <path fill="#9b96e3" d="M561 489h9v56h-9z"/>
  <path fill="#f2f2f2" d="M561 497h9v7h-9zm0 32h9v7h-9z"/>
  <path fill="#9b96e3" d="m533 541 20-53 9 3-20 53z"/>
  <path fill="#f2f2f2" d="m548 503 2-7 9 3-3 7zm-12 30 2-6 9 3-3 7zm-173 11h256v5H363z"/>
  <path fill="#9b96e3" d="M475 489h47v56h-47z"/>
  <path fill="#f2f2f2" d="M486 501h24v11h-24zm3-101h5v48h-5z"/>
  <circle cx="491" cy="447.7" r="7.5" fill="#f2f2f2"/>
  <path fill="#9b96e3" d="M679 219H155l10-19h509l5 19zm13 45H134l9-19h543l6 19z"/>
  <path d="M747 151s-8 20-6 39a20 20 0 0 0 3 9l-92 44s-42 5-31 23 48-9 48-9 99-15 106-29 13-74 13-74Z" fill="#a0616a"/>
  <path d="M751 98h19s15 3 18 29 8 32 4 32l-50-2 9-59Z" fill="#d0cde1"/>
  <circle cx="100" cy="386.4" r="100" fill="#9b96e3"/>
  <circle cx="100" cy="386.4" r="86" opacity=".1"/>
  <path d="M96 437v-12c-6-1-13-3-17-6l3-8a27 27 0 0 0 16 5c7 0 12-5 12-12s-4-11-12-15c-11-5-18-10-18-21 0-10 7-18 17-20v-13h6v12a27 27 0 0 1 15 5l-3 8a24 24 0 0 0-14-4c-8 0-11 5-11 10 0 7 4 10 13 14 11 6 17 12 17 23 0 10-6 19-17 21v13Z" fill="#f2f2f2"/>
</svg>
