<svg data-name="Layer 1" xmlns="http://www.w3.org/2000/svg" width="1049.6" height="678.6" viewBox="0 0 1050 679">
  <defs>
    <linearGradient id="a" x1="790.7" y1="664.4" x2="790.7" y2="175.8" gradientUnits="userSpaceOnUse">
      <stop offset="0" stop-color="gray" stop-opacity=".3"/>
      <stop offset=".5" stop-color="gray" stop-opacity=".1"/>
      <stop offset="1" stop-color="gray" stop-opacity=".1"/>
    </linearGradient>
  </defs>
  <path fill="#85848b" d="M0 671h1050v8H0z"/>
  <path d="M832 535c0 6-35 24-76 24s-72-18-72-24 33-4 74-4 74-1 74 4Z" fill="#504f60"/>
  <path d="M832 535c0 6-35 24-76 24s-72-18-72-24" opacity=".2"/>
  <path d="M420 427c7 1 14 2 20 0l2-2a2 2 0 0 0 0-1 62 62 0 0 1-6-12 1 1 0 0 0-1 0l-9 3a12 12 0 0 1-4 0l-5-1 3 13Zm126-11c4-3 8-6 11-11a2 2 0 0 0 0-1 37 37 0 0 0-9-11 27 27 0 0 0-6 5c-1 1-4 3-4 5l2 3a63 63 0 0 1 6 10Z" fill="#6c63ff"/>
  <path d="M446 441a4 4 0 0 1-1 3 4 4 0 0 1-1 1c-10 3-20-1-30 2l-5 2a31 31 0 0 1-7 1l-10 1a24 24 0 0 1-7-1 9 9 0 0 1-6-4 4 4 0 0 1 0-3 3 3 0 0 1 0-1 9 9 0 0 1 2-2l4-2a23 23 0 0 1 5-3l4-1c5-1 9-5 12-9l5-5a5 5 0 0 1 1-1 4 4 0 0 1 2 0 27 27 0 0 1 13 4 16 16 0 0 0 3 2c3 1 6 0 9-1l1-2c0-1 2-2 3-1a3 3 0 0 1 1 1v10a5 5 0 0 0 0 2 9 9 0 0 0 1 1 3 3 0 0 1 0 1 10 10 0 0 1 1 5Z" fill="#514e7f"/>
  <path d="M446 441a4 4 0 0 1-1 3 4 4 0 0 1-1 1c-10 3-20-1-30 2l-5 2a31 31 0 0 1-7 1l-10 1a24 24 0 0 1-7-1 9 9 0 0 1-6-4 4 4 0 0 1 0-3 3 3 0 0 1 0-1l1 3a6 6 0 0 0 5 3 11 11 0 0 0 4 0c8-3 17-3 25-6l9-3 9-1 14-2a10 10 0 0 1 0 5Z" fill="#464353"/>
  <path d="m567 416-5 9-8 8c-2 3-3 8-6 11a18 18 0 0 1-4 3 28 28 0 0 1-5 2c-5 2-10 1-15 1a13 13 0 0 1-4-1 14 14 0 0 1-2-1 9 9 0 0 1-3-3 3 3 0 0 1-1-2 5 5 0 0 1 2-3 33 33 0 0 1 3-3 21 21 0 0 0 5-4 13 13 0 0 0 2-4 35 35 0 0 0 1-7 24 24 0 0 1 0-5c1-3 3-5 3-8a2 2 0 0 1 0-1 2 2 0 0 1 1-1 16 16 0 0 1 5-1 6 6 0 0 1 4 2l2 2a3 3 0 0 0 2 0c2 0 5 0 7-2a9 9 0 0 0 3-6c0-1-1-2 1-2 1-1 2 1 2 1l5 9a3 3 0 0 1 1 0 4 4 0 0 1 3 1 6 6 0 0 1 1 5Z" fill="#514e7f"/>
  <path d="m567 416-5 9-8 8c-2 3-3 8-6 11a18 18 0 0 1-4 3 28 28 0 0 1-5 2c-5 2-10 1-15 1a13 13 0 0 1-4-1 14 14 0 0 1-2-1 9 9 0 0 1-3-3 7 7 0 0 1 3-1c2 0 3 2 5 3 3 1 6-1 9-2l6-1a15 15 0 0 0 5-3 22 22 0 0 0 4-4 29 29 0 0 0 3-6 79 79 0 0 1 6-10 8 8 0 0 1 1-2l1-1c2-1 3-4 4-6a11 11 0 0 1 1-3 4 4 0 0 1 3 2 6 6 0 0 1 1 5Z" fill="#464353"/>
  <path d="M357 104a21 21 0 0 1 6 7c1 3 10 24 9 27 3-3 13-3 16-6l8-8 8-5c3-5-19-24-16-28a1 1 0 0 0 0-1 1 1 0 0 0-1-1c-1-2-4-3-6-4s-4-3-5-6a21 21 0 0 0-6 4l-11 11-6 5c-1 2 3 4 4 5Z" fill="#a1616a"/>
  <path d="M393 96a65 65 0 0 0-10 8c-2 2-5 5-6 9v5c-1 6-7 11-9 17a30 30 0 0 0-2 6 69 69 0 0 0-1 12c0 3 4 6 5 9l2 11 6 20 26 65c15-4 56-13 69-21 4-3-31-33-26-35a2 2 0 0 0 1-2c-5-21-20-38-26-58l-10-20-8-19a12 12 0 0 0-3-3 15 15 0 0 0-2-2l-6-2Z" fill="#514e7f"/>
  <circle cx="357.9" cy="77.8" r="23.6" fill="#a1616a"/>
  <path d="M382 89a8 8 0 0 1 9-1c1 0 3 2 2 4h12a24 24 0 0 1 6 1 8 8 0 0 1 4 2l1 1a10 10 0 0 1 6-1c7 0 13 3 17 7a6 6 0 0 1 2 3l1 4c0 11 4 21 7 32 0 2 2 3 3 5a21 21 0 0 1 4 5c2 6-1 13 1 18l4 6a16 16 0 0 1 4 9v4a24 24 0 0 0 1 5l3 10c1 5 3 10 8 13-12 2-23 4-34 0a18 18 0 0 1-4-2c-4-3-6-7-8-12s-4-10-4-15a18 18 0 0 0-1-5c-1-3-4-5-6-7a32 32 0 0 1-8-6 12 12 0 0 1-4-9l1-5c0-2 0-4-2-4-8-3-12-12-14-21a66 66 0 0 1-1-13v-8a11 11 0 0 1-4-8 10 10 0 0 0 0-3 7 7 0 0 0-2-3 25 25 0 0 1-4-6Zm-25 27-1 8v3a17 17 0 0 0 1 11 62 62 0 0 0 5 10 16 16 0 0 1 2 3 18 18 0 0 1 1 4 121 121 0 0 0 3 16c1 4 13 43 16 46a4 4 0 0 0 3 2 4 4 0 0 0 2-1l6-2a4 4 0 0 0 1-1 4 4 0 0 0 1-2c0-5-12-44-14-48l-15-42c-1-4-1-10-4-13-1-2-1-1-2 0a16 16 0 0 0-2 1 7 7 0 0 0-3 5Z" fill="#464353"/>
  <path d="m375 142 5 26 23-6c1-3-1-5-2-7l-4-17-4-12-2-8a54 54 0 0 0-3-7 45 45 0 0 0-5-10c-3 1-6 3-8 6a11 11 0 0 0-1 5v15a47 47 0 0 0 1 15Z" fill="#6c63ff"/>
  <path d="M404 256c1 5-1 10-2 15a118 118 0 0 0-5 23 20 20 0 0 1-1 5l-3 5c-3 4-3 9-2 14l1 10c1 3 2 7 1 11 2 0 3 2 3 4v5c3 1 3 4 3 7a54 54 0 0 0 1 13l11 50c9 2 19 5 27 1 1 0 3-1 3-3a6 6 0 0 0 0-3l-4-14-2-10c1-2 2-5 1-7l-2-3c-2-2-1-6-1-10a8 8 0 0 0 0-2 12 12 0 0 0-1-3 40 40 0 0 1-4-20 5 5 0 0 0-1-2 8 8 0 0 1 0-1 3 3 0 0 1 0-2 18 18 0 0 1-3-3 4 4 0 0 0 0-7 2 2 0 0 0 1-4l-1-1v-3l3-4 4-10 6-14 7-18 4 4a14 14 0 0 1 4 4 18 18 0 0 1 1 5c2 10 8 19 10 29l2 6a14 14 0 0 1 2 2 10 10 0 0 1 0 3 14 14 0 0 0 6 10l6 5a9 9 0 0 0 1 2l4 3 1 3a3 3 0 0 0 1 1l6 3c7 4 11 12 17 18a39 39 0 0 1 4 7c3 4 4 9 8 12a11 11 0 0 1 3 2l1 6c1 2 1 4 3 4a14 14 0 0 0 0 7 38 38 0 0 0 23-9c2-2 4-4 4-6a2 2 0 0 0 0-2 4 4 0 0 0-2-1c-6-3-8-11-11-17l-10-15c-7-11-12-24-23-32l-6-5-2-5c-1-2-1-3-3-3l1-7a9 9 0 0 0-1-3 15 15 0 0 0-1-3 30 30 0 0 1-4-16l-1-9-1-4a25 25 0 0 1-2-8v-9a47 47 0 0 0-1-10c-2-7-4-38-11-42s-19 21-27 21a34 34 0 0 0-10 2c-5 2-9 6-13 9l-14 12-9 7ZM336 51c3-4 8-6 13-6s11 1 16 4a19 19 0 0 0 4 1l8 1c3 2 3 6 3 9s-1 8 1 10a23 23 0 0 1 2 3l-1 6-2-4c-1-1-3-2-5-1s-1 2-1 4l-2 3a3 3 0 0 1-3-1c-2-3-1-7-3-10l-5-4-2-4c-1-1-3-3-4-2a5 5 0 0 0-1 2 6 6 0 0 1-7 2 12 12 0 0 0-3-2 4 4 0 0 0-4 2 8 8 0 0 0-1 5l-1 5a6 6 0 0 1-1 2c-2 1-4 2-6 0a4 4 0 0 1-1-4 31 31 0 0 1 1-4l1-9a30 30 0 0 1 4-8Z" fill="#464353"/>
  <path d="M348 122a4 4 0 0 0 1 2 3 3 0 0 0 1 1 24 24 0 0 0 11 4 3 3 0 0 1 1 0l1 3a8 8 0 0 0-1 4c1 2 3 3 5 3 3 0 6 0 9-2a13 13 0 0 0 3-5c6-13 8-28 14-41a9 9 0 0 0 1-2 3 3 0 0 0-1-3l-4-1-1-2-3-2-3-2a3 3 0 0 0-3 2c-3 3-5 7-7 12a140 140 0 0 1-10 18l-3-6c-2 0-4 3-5 4a25 25 0 0 0-6 13Z" fill="#6c63ff"/>
  <path d="M385 82a5 5 0 0 0-4 2l-2 5a43 43 0 0 1-5 16m16-19a6 6 0 0 0-5 3 16 16 0 0 0-1 5 27 27 0 0 1-5 10" opacity=".1"/>
  <path d="M627 282v-13a34 34 0 0 0-34-34H102a34 34 0 0 0-34 34v23Z" fill="#33323d"/>
  <path d="M239 220s-1 87 14 116 22 152 22 152 161 17 274-20 352-51 352-51l-41-272s-199-13-312 41-309 34-309 34Z" fill="#8dd070"/>
  <path d="M239 220s-1 87 14 116 22 152 22 152 161 17 274-20 352-51 352-51l-41-272s-199-13-312 41-309 34-309 34Z" opacity=".1"/>
  <path d="M275 252s-5 72 7 94 14 126 14 126 145 6 248-29 321-58 321-58l-25-222s-180-2-285 47-280 42-280 42Z" fill="#8dd070"/>
  <ellipse cx="628.3" cy="440.3" rx="37.7" ry="80.9" transform="rotate(-7 -366 1062)" opacity=".1"/>
  <path d="M751 12S558 61 466 148 183 275 183 275s25 83 48 105 68 139 68 139 159-34 255-103 319-157 319-157Z" opacity=".2"/>
  <path d="M180 262s25 83 49 106 67 139 67 139 159-34 255-103 319-158 319-158L748 0S555 49 463 135 180 262 180 262Z" fill="#8dd070"/>
  <path d="M180 262s25 83 49 106 67 139 67 139 159-34 255-103 319-158 319-158L748 0S555 49 463 135 180 262 180 262Z" opacity=".1"/>
  <path d="M224 282s17 69 36 87 51 115 51 115 140-38 228-103 287-154 287-154L734 23S563 77 478 156 224 282 224 282Z" fill="#8dd070"/>
  <ellipse cx="585.8" cy="384" rx="37.7" ry="80.9" transform="rotate(-25 277 516)" opacity=".1"/>
  <path d="M641 294v345a30 30 0 0 1-30 30H98a30 30 0 0 1-30-30V259c15 5 15 5 30 5h513a30 30 0 0 1 30 30Z" opacity=".1"/>
  <path d="M641 298v345a30 30 0 0 1-30 30H98a30 30 0 0 1-30-30V263c15 6 15 6 30 5h513a30 30 0 0 1 30 30Z" fill="#504f60"/>
  <path d="M639 426v110H532a55 55 0 0 1 0-110Z" opacity=".1"/>
  <path d="M641 423v110H534a55 55 0 0 1 0-110Z" fill="#33323d"/>
  <circle cx="538.8" cy="480.9" r="21.5" opacity=".1"/>
  <circle cx="540.3" cy="478" r="21.5" fill="#6c63ff"/>
  <path d="M826 422c1 9-6 18-4 27l2 6c1 5-2 10-6 15l-26 38a24 24 0 0 1-3 5c-5 4-13 4-20 5a33 33 0 0 0-12 6 1 1 0 0 0 0 1 11 11 0 0 0 9 4c1 1 0 2-1 3s-3 1-4 4a4 4 0 0 0 1 2 7 7 0 0 0 4 3c10 3 19-2 26-8s12-15 18-22l12-11a134 134 0 0 0 23-33l2-9c1-4 4-7 6-10 5-7 8-15 7-22s-5-16-13-19a12 12 0 0 0-7 0c-3 1-5 3-7 6l-5 5a13 13 0 0 0-3 5 5 5 0 0 0 1 5" fill="#fbbebe"/>
  <path d="M826 422c1 9-6 18-4 27l2 6c1 5-2 10-6 15l-26 38a24 24 0 0 1-3 5c-5 4-13 4-20 5a33 33 0 0 0-12 6 1 1 0 0 0 0 1 11 11 0 0 0 9 4c1 1 0 2-1 3s-3 1-4 4a4 4 0 0 0 1 2 7 7 0 0 0 4 3c10 3 19-2 26-8s12-15 18-22l12-11a134 134 0 0 0 23-33l2-9c1-4 4-7 6-10 5-7 8-15 7-22s-5-16-13-19a12 12 0 0 0-7 0c-3 1-5 3-7 6l-5 5a13 13 0 0 0-3 5 5 5 0 0 0 1 5" opacity=".1"/>
  <path d="M846 659c-5 3-13 4-19 3h-3c-1 2 0 3 1 4a29 29 0 0 0 14 6 88 88 0 0 0 13 1c12 0 24 0 35-2a5 5 0 0 0 2 0 4 4 0 0 0 2-2c1-3-1-7-3-9l-9-4-10-4c-2-1-6-4-9-4-5 1-10 9-14 11Z" fill="#3f3d56"/>
  <path d="M846 659c-5 3-13 4-19 3h-3c-1 2 0 3 1 4a29 29 0 0 0 14 6 88 88 0 0 0 13 1c12 0 24 0 35-2a5 5 0 0 0 2 0 4 4 0 0 0 2-2c1-3-1-7-3-9l-9-4-10-4c-2-1-6-4-9-4-5 1-10 9-14 11Z" opacity=".1"/>
  <path d="M854 521c-5 6-9 12-8 19 0 4 3 8 4 11l4 15 5 23c1 9-4 34-5 42 0 3 0 5-2 6l-1 2a3 3 0 0 0 0 2c2 6 7 10 13 12s19 7 25 7a5 5 0 0 0 2 0 5 5 0 0 0 2-2c5-9 0-38 0-48l2-23-3-19c-1-10 1-20 3-31a445 445 0 0 1 10-36l7-9a41 41 0 0 0 8-30l-16 4a51 51 0 0 0-15 10l-9 11-13 16-13 18Z" fill="#464353"/>
  <path d="M854 521c-5 5-9 12-8 19 0 4 3 7 4 11l4 15 5 23c1 8-4 33-5 42 0 2 0 5-2 6l-1 2a3 3 0 0 0 0 2c2 6 7 10 13 12l25 5a5 5 0 0 0 2-1 5 5 0 0 0 2-2c5-8 0-36 0-45l2-23c0-7-2-13-3-19a449 449 0 0 1 13-67l7-10a41 41 0 0 0 8-29l-16 4a51 51 0 0 0-15 9l-9 12-13 15-13 19Z" opacity=".1"/>
  <circle cx="805.4" cy="369.7" r="24.3" fill="#fbbebe"/>
  <path d="M827 369a31 31 0 0 0 20 14l-1 6c-4 12-7 24-16 32 1-4 0-8-2-12s-6-6-9-8l-14-12a4 4 0 0 1-1-1 4 4 0 0 1 0-3c2-6 7-9 11-13a38 38 0 0 0 6-6c3-4 4 0 6 3Z" fill="#fbbebe"/>
  <path d="M773 345v-4c4 1 7-2 10-6s4-7 8-9c5-1 10 1 14 4a43 43 0 0 0 16 5 10 10 0 0 1 2 0c3 1 4 5 5 8l1 9 4 6c3 6 0 14 4 20l-8-8h-3l-1 2c0 2-3 3-5 2l-5-5-12-9a16 16 0 0 0-13 1c-4 2-7 7-11 7-6 0-9-11-12-16a6 6 0 0 0 2-7h4Z" fill="#464353"/>
  <path d="M473 203a47 47 0 0 0-5 6 11 11 0 0 0-3 7 4 4 0 0 0 1 3 2 2 0 0 0 2 0 3 3 0 0 0 1-1 48 48 0 0 1 3-3l2-1a2 2 0 0 1 1 0 5 5 0 0 1 1 3l-1 4c-1 1-3 2-3 4a2 2 0 0 0 0 1 2 2 0 0 0 1 1 11 11 0 0 0 9 0l6-3a14 14 0 0 0 3-1 5 5 0 0 0 2-3 14 14 0 0 0 0-4 48 48 0 0 0-3-16 2 2 0 0 0-1-1 2 2 0 0 0-1 0c-3-1-7-2-9-1a7 7 0 0 0-2 2l-4 3Z" fill="#a1616a"/>
  <path d="M472 201c0-2-3-8 2-9 0-2-4-4-3-7l1-2c1-3-4-4-3-7l1-2c1-3-3-4-4-6l1-2-1-3c-2-2-1-6-3-7 1 0 2-2 1-3l-2-4a6 6 0 0 0 0-2c0-2-3-2-3-3a13 13 0 0 1 0-2l-3-2a10 10 0 0 1-3-1c-1-1-1-2-2-1l-1 1c-1 1-2 0-3-1-4-2-5-6-6-10l-2-12a26 26 0 0 0-1-3l-2-4c0-2 5-1 7-1a28 28 0 0 1 5 1 55 55 0 0 1 5 3c8 3 16 3 22 9l6 5a27 27 0 0 1 3 0c3 2 4 5 5 8a15 15 0 0 1 1 2 8 8 0 0 1 1 3v7c0 12 1 23-1 35 0 4-1 8 1 11l1 3a18 18 0 0 1 0 4v4a1 1 0 0 1 0 1 1 1 0 0 1-1 0c-7 0-13-4-19-1" fill="#464353"/>
  <ellipse cx="757.6" cy="535.5" rx="74" ry="10.7" fill="#504f60"/>
  <path d="m906 654-2-10s0-6-3-11v-13a38 38 0 0 1 3-5c2-4 0-17 0-17s-7-18-6-30-15-51-15-51a51 51 0 0 1 2-11 9 9 0 0 0 0-3c0-7-6-22-6-22v-27s4-16-2-37l-5-18v-2l23-4s-8-31-13-36-9-23-9-23-2-22 2-29 5-17 5-17l11-10c2-3 3-11 3-14l-1-9c0-2-3-10-1-13a9 9 0 0 0 1-4 48 48 0 0 0-1-9 26 26 0 0 0-10-5v-1l-1-2a11 11 0 0 0-1-1v-4l2-7c3-12-14-14-14-14a9 9 0 0 0-4-4c-4-1-1 19 1 20l6 10v6a18 18 0 0 0-2 5s3 3 2 7 1 8 1 9c0-1-2-3-4-2l-8 2s-5 1-4 2-3 5-3 5l-12-11-1-1a28 28 0 0 1-1-5 27 27 0 0 0 4-2 8 8 0 0 0 3-2c2-1 2-3 2-5l5-10a32 32 0 0 0 2-17 12 12 0 0 0-2-6l-8-6-7-7h-9a49 49 0 0 0-17 6l-6 2-4-3a1 1 0 0 1 0-1 21 21 0 0 0-2 9v3a5 5 0 0 1-1 2 11 11 0 0 0-1 1 7 7 0 0 0-1 3 4 4 0 0 0 1 3 13 13 0 0 0 2 2 23 23 0 0 0-1 4 23 23 0 0 0 12 19v1c2 4 3 9 2 13v2s-20 0-25-4-11 10-11 10-7 2-9 0-10 0-10 0a18 18 0 0 0-12-5 36 36 0 0 0-9-5 10 10 0 0 0-5 0s-9-8-12-13l-16-20v-1l-1-2a8 8 0 0 1-1 0v-1a45 45 0 0 0-3-6s0-3 1-4v-11s-9-21-17-6c0 0-15 10-2 22 0 0 5 2 5 4l4 7v4c-2 1-4 3-3 4a22 22 0 0 1 1 5s17 21 19 31c0 0 47 27 62 29l-3 14a109 109 0 0 0-1 11c1 3-1 16-1 16s-3 19-5 22-2 15-2 15a99 99 0 0 1-3 16c-2 8-1 17-1 17s-7 18 11 6l19-1v5a664 664 0 0 0 7 90v18a25 25 0 0 0 0 6 34 34 0 0 0 5 18l1 12 3 13a7 7 0 0 1 0 2 8 8 0 0 0 0 1l3 19s0 14 2 15c2 0-2 7-3 10a3 3 0 0 1 0-1v1a10 10 0 0 0-1 3 5 5 0 0 0 2 5c4 2 6 4 3 5a34 34 0 0 0-4 1v-1a2 2 0 0 0-1 2 10 10 0 0 0 1 5l5 10h2a8 8 0 0 1-1 2 6 6 0 0 1-2 2 7 7 0 0 1-3 0 8 8 0 0 0-6 3c-2 3-3 6 1 10l15 5s24 3 23-3l-2-10a22 22 0 0 0-2-10 13 13 0 0 0-1-2h1s2-12 4-14l1-2-1-1-1 1a12 12 0 0 0-2-1s-1-6 2-9a2 2 0 0 0 0-1 10 10 0 0 0 0-3c-1-6-6-15-6-15s0-6 2-8-1-32-1-32 1-14-1-21 2-15 2-15v-2l-2-14 1-26 3-9 7 16 7 21s3 4 3 9a12 12 0 0 0 0 2 13 13 0 0 0 2 7s2 10 5 13 2 7 2 7l5 17c2 2 2 8 2 10v12a15 15 0 0 1 0 3 37 37 0 0 0-1 9c0 5 1 11 4 15 5 6 9 5 9 5s-3 8-6 9a2 2 0 0 0-1 1v-1a4 4 0 0 0-1 3c0 4 2 9 4 12a7 7 0 0 0 3 1 4 4 0 0 1 0 1 11 11 0 0 1-1 0 6 6 0 0 1-2 1 8 8 0 0 0-6 2c-2 3-3 7 1 10l14 5s25 3 24-3Z" transform="translate(-84 -118)" fill="url(#a)"/>
  <path d="m726 545-14-5c-4-3-2-6 0-9a7 7 0 0 1 5-3 7 7 0 0 0 3-1 6 6 0 0 0 2-2 10 10 0 0 0 2-5s15-5 19 0a11 11 0 0 1 2 3 23 23 0 0 1 2 9l2 11c1 6-23 2-23 2Zm69-7-14-5c-4-3-3-6-1-9a7 7 0 0 1 6-3 5 5 0 0 0 1 0 11 11 0 0 0 1-1c4-2 4-7 4-7s15-5 20 0a11 11 0 0 1 1 2c3 4 2 11 2 11l2 10c1 6-22 2-22 2Z" fill="#2d293d"/>
  <path d="M743 520a11 11 0 0 1 2 3l-23 2a10 10 0 0 0 2-5s15-5 19 0Zm70-5v4c-3 6-21 5-26 2a11 11 0 0 0 1-1c4-2 4-7 4-7s15-5 20 0a11 11 0 0 1 1 2Z" opacity=".1"/>
  <path d="M816 496a39 39 0 0 0-3 6v16c-4 6-24 4-27 0s-5-12-2-14 5-9 5-9-3 1-8-6-4-20-3-23v-15l-1-10-5-17s0-5-3-7-5-13-5-13a13 13 0 0 1-1-8c0-5-4-11-4-11l-6-21-7-15-3 9v26l2 16s-4 8-3 15l2 21v31l-2 9s8 17 6 19-2 9-2 9 6 0 3 2-4 15-4 15l-24 3-5-10c-3-7 1-7 4-7s1-3-3-6-1-7-1-7 5-10 3-11-2-14-2-14-4-16-3-20-3-15-3-15l-1-12a34 34 0 0 1-4-23v-19s-6-37-7-56v-47l85-9 1 12 5 18c6 22 2 38 2 38l-1 27s8 18 6 25a52 52 0 0 0-1 11s16 40 14 51 6 30 6 30 2 13 0 16Z" fill="#464353"/>
  <path d="m768 394 25-3s-14 15-25 3Zm22-28s0 9-5 12c0 0 10-1 5-12Zm-2-29s-21 18-29 16 29-16 29-16Zm-52 66s-17 3-17 10 17-10 17-10Zm3 81s-23 5-16 8l17 5s8 0-1-13Zm-21 12a5 5 0 0 1-2-3s-2 6 1 8l2 1 2-1c3 0 1-2-3-5Zm30-1v-4l-1 5a5 5 0 0 1 1-1Zm-4-98a27 27 0 0 0-1 8 29 29 0 0 1 2-5Zm53-10a9 9 0 0 0 0-2v4-2Zm-53 80v-4a15 15 0 0 0-1 5 5 5 0 0 1 1-1Zm5 37a78 78 0 0 0-3 12l-24 2-5-9a18 18 0 0 1-1-2c-1 0-2 2 0 6l5 10 24-3s2-12 4-14v-2Zm-32-35 2 14c1-2 2-4 1-5-2-1-2-14-2-14s-4-16-3-20-3-15-3-15l-1-12a34 34 0 0 1-5-24v-19s-5-36-6-55v-43h-1v48c1 18 7 55 7 55v19a34 34 0 0 0 4 23l1 13s4 10 3 14 3 21 3 21Zm70 44a23 23 0 0 1-4-9c-2 2 1 11 3 14 3 3 23 6 27-1v-4c-5 6-23 4-26 0Zm30-22a40 40 0 0 0-3 6v3l2-4a12 12 0 0 0 1-5Zm-29 3a39 39 0 0 0 2-4s-3 0-9-6c-3-4-4-13-3-19-1 4-3 18 3 24 3 4 6 5 7 5Zm-10-43a104 104 0 0 1 0 11 16 16 0 0 1 1-1v-15s0-8-2-10-4-17-4-17 0-5-3-8-5-12-5-12a13 13 0 0 1-2-9c1-4-3-10-3-10l-7-21-6-16-3 9-1 3 3-7 7 16 6 21s4 5 4 10a13 13 0 0 0 2 9s1 10 4 12 3 7 3 7l5 17c2 2 1 11 1 11Z" opacity=".1"/>
  <path d="m794 91-1 7v6l-8 1-1-2-6-10c-2-2-5-21-1-20a9 9 0 0 1 4 4s16 2 13 14Z" fill="#ffcdd3"/>
  <path d="m793 104-8 1-1-2a7 7 0 0 1 9-2Z" opacity=".1"/>
  <path d="m795 108-11 2v-6s4-6 10-1v2Z" fill="#6c63ff"/>
  <path d="m621 92-12 6-1-2-3-7-5-4c-12-12 2-22 2-22 8-15 16 5 16 5v15a45 45 0 0 1 2 7l1 2Z" fill="#ffcdd3"/>
  <path d="m621 92-12 6-1-2c2-2 8-6 10-6a14 14 0 0 0 2 0l1 2Z" opacity=".1"/>
  <path d="m622 95-13 7v-5s7-6 9-6a12 12 0 0 0 4 0v2Z" fill="#6c63ff"/>
  <path d="M763 138s-56 7-46 3c8-2 11-7 11-12 1-4 0-9-2-13a57 57 0 0 0-5-10s43-24 34-2a35 35 0 0 0-2 10 29 29 0 0 0 1 10 31 31 0 0 0 9 14Z" fill="#ffcdd3"/>
  <path d="M755 104a35 35 0 0 0-2 10c-4 3-8 3-14 3-5 0-9 1-13-1a57 57 0 0 0-5-10s43-24 34-2Z" opacity=".1"/>
  <circle cx="738.1" cy="95.5" r="23.3" fill="#ffcdd3"/>
  <path d="M763 138s-56 7-46 3c8-2 11-7 11-12 3-3 9-5 12-6a17 17 0 0 1 10 0 15 15 0 0 1 4 1 31 31 0 0 0 9 14Zm32-30-11 2v-2a10 10 0 0 1 10-3ZM622 95l-13 7v-3a94 94 0 0 1 13-6Zm163 185a347 347 0 0 1-86 6v-9l85-9 1 12Z" opacity=".1"/>
  <path d="M807 275s-72 12-79 10-48 0-48 0c-17 12-10-5-10-5s-2-10 1-17a102 102 0 0 0 3-17s-1-11 1-14 5-22 5-22l2-17v-11l3-13c-15-2-59-30-59-30-3-9-19-30-19-30a23 23 0 0 0-2-6c-1-3 17-9 17-9l16 20 12 13a9 9 0 0 1 4 0 35 35 0 0 1 9 5 17 17 0 0 1 12 5s8-1 9 0h9s7-15 11-10 24 4 24 4c2-4 8-6 12-7a17 17 0 0 1 10-1 13 13 0 0 1 4 2l12 12 3-6 4-1 8-3c2-1 4 2 4 2s-2-5-1-8-2-7-2-7c6-17 22-3 22-3s2 9 0 13 2 11 1 13 1 5 1 9l-3 13c-1 3-11 11-11 11s0 11-4 17-2 29-2 29 4 17 9 22 12 37 12 37Z" fill="#3f3d56"/>
  <path d="M702 146s-2-6-4-7a45 45 0 0 1-5-2l1-2s7 2 8 4v7Zm-39-14c0 2-18 4-18 4l9-9a35 35 0 0 1 9 5Z" opacity=".1"/>
  <circle cx="612.8" cy="105.4" r="1.6" fill="#575988"/>
  <circle cx="614.8" cy="108.5" r="1.6" fill="#575988"/>
  <circle cx="616.8" cy="111.4" r="1.6" fill="#575988"/>
  <circle cx="618.8" cy="114.5" r="1.6" fill="#575988"/>
  <circle cx="803.1" cy="114.3" r="1.3" fill="#575988"/>
  <circle cx="803.4" cy="117.2" r="1.3" fill="#575988"/>
  <circle cx="803.5" cy="120.1" r="1.3" fill="#575988"/>
  <path d="M703 199c-1 0 43 56 78 24 0 0-54 7-78-24Zm-26 29s27 1 29 9v8a5 5 0 0 1-5 0c-2-2-18-10-24-6Z" opacity=".1"/>
  <path d="M678 228s25 1 28 8v8a5 5 0 0 1-5 0c-3-1-18-9-23-5Z" fill="#3f3d56"/>
  <path d="M692 171a85 85 0 0 0 10 18 69 69 0 0 0 16 15s-26-29-26-33Zm-9-30s4 19 16 25Zm-7 1s-4 15 15 24c0 0-8-3-15-24Zm115-12 12 8s-6-9-12-8Z" opacity=".1"/>
  <path d="M732 117a4 4 0 0 0 4 3c7 1 14 1 21-2a8 8 0 0 0 3-2l2-5 4-10a33 33 0 0 0 2-18 12 12 0 0 0-1-5c-2-3-6-4-8-6l-7-7-9-1a46 46 0 0 0-16 7c-2 1-4 2-6 1l-4-3a22 22 0 0 0-1 10 4 4 0 0 1-1 2 5 5 0 0 1-1 2c-1 2-2 5-1 7l3 2 1 6a3 3 0 0 0 0 2 3 3 0 0 0 3 1 8 8 0 0 1 3 0 5 5 0 0 1 3 2c3 4 4 9 6 14Z" fill="#2d293d"/>
  <path d="M761 114a8 8 0 0 1-3 2c-7 3-14 3-21 2a5 5 0 0 1-3 0l-1-3c-2-5-3-10-6-14a5 5 0 0 0-3-2 8 8 0 0 0-3 0 3 3 0 0 1-3 0 3 3 0 0 1 0-2l-1-7-3-2a5 5 0 0 1 0-5c-2 2-2 5-1 7l3 2 1 6a3 3 0 0 0 0 2 3 3 0 0 0 3 1 8 8 0 0 1 3 0 5 5 0 0 1 3 2c3 4 4 8 6 13a5 5 0 0 0 2 3 5 5 0 0 0 2 1c7 0 14 1 21-2a8 8 0 0 0 3-2 6 6 0 0 0 1-2Zm-45-34a3 3 0 0 0 0-1 4 4 0 0 0 0-1 22 22 0 0 1 1-9 22 22 0 0 0-1 10 7 7 0 0 1 0 1Zm12 51s29 4 31-1m25-11s16 0 20 6" opacity=".1"/>
  <path d="M875 659a26 26 0 0 1-18 6l-4 2a3 3 0 0 0 1 2 16 16 0 0 0 9 7h21l6-1 6-1a82 82 0 0 1 16 0l4-1v-5l-1-9c-1-6-5-10-11-12-4-2-13-4-17-1l-12 13Z" fill="#3f3d56"/>
  <path d="M885 477c1 4 5 7 6 12 0 4-3 7-5 10a66 66 0 0 0-4 10 155 155 0 0 1-13 26c-3 4-6 8-5 13a19 19 0 0 0 2 6l8 15a43 43 0 0 1 3 9l1 9c2 9 6 18 3 27l-1 1c2 5 4 10 4 15v8l1 3v3c0 2 2 3 4 4l6 1 10 7a21 21 0 0 0 11 4 3 3 0 0 0 2 0 3 3 0 0 0 1-2 11 11 0 0 0-4-10 5 5 0 0 1-2-2 4 4 0 0 1 0-2 135 135 0 0 0 0-24 37 37 0 0 1-1-8l1-7-2-6-1-12-3-20-3-7c-2-1-4-3-4-5a6 6 0 0 1 2-2 9 9 0 0 0 1-7 3 3 0 0 0 4-1c12-6 22-18 26-30a10 10 0 0 1 1-3c1-2 3-2 5-3 6-3 9-8 13-13l5-9a31 31 0 0 0 0-7l1-12a6 6 0 0 0-1-2 6 6 0 0 0-1-2 23 23 0 0 0-12-7l-10-1-19-2c-10 1-18 8-23 17-2 3-3 5-7 6Z" fill="#464353"/>
  <path d="M830 400a13 13 0 0 1 0 5c-1 2-3 3-5 3 1-1-1-3-2-3a4 4 0 0 0-3 3 9 9 0 0 0 0 5l1 7c0 2-2 4-1 6a9 9 0 0 0 2 2 6 6 0 0 1-1 8l19 1c-1 3 1 6 2 9a58 58 0 0 0 44 28 4 4 0 0 0-1 6h6l5-4a16 16 0 0 1 11-3l7 1c7 1 13-4 19-6 5-2 11-2 15-5 2-1 3-3 3-5a9 9 0 0 0-2-4c-3-3-4-7-6-10a61 61 0 0 0-13-18 122 122 0 0 0-14-11 23 23 0 0 0-4-2l-5-2-5-6c-3-4-9-6-14-10l-9-6-6-1c-4-1-7-5-11-6-3-2-7-1-10-2a23 23 0 0 1-10-4 12 12 0 0 0-4-2c-5-1-5 8-6 11l-2 15Z" fill="#6c63ff"/>
  <path d="M835 432c1 9-6 18-4 27l2 6c1 5-3 10-6 15l-26 38a24 24 0 0 1-4 5c-5 4-12 4-19 5a33 33 0 0 0-13 6 1 1 0 0 0 0 1 11 11 0 0 0 10 4c1 1 0 2-1 3-2 1-3 1-4 4a4 4 0 0 0 1 2 7 7 0 0 0 4 3c9 3 19-2 26-8s12-15 18-22l12-11a134 134 0 0 0 23-33l1-9 7-10c4-7 8-15 7-22s-6-16-13-19a12 12 0 0 0-7 0c-3 1-6 3-8 6l-5 5a13 13 0 0 0-2 5 5 5 0 0 0 1 5" fill="#fbbebe"/>
  <path d="M849 394c-4 0-8 0-10 3a14 14 0 0 0-3 4c-2 5-4 10-4 15-1 4 1 8 1 13 1 3 0 7-1 10l14-5 8-4c4-2 11 1 15 3l-2-11a11 11 0 0 1 1-3 21 21 0 0 1 2-3 13 13 0 0 0-1-16c-4-4-9-5-14-6a61 61 0 0 0-10 0" fill="#6c63ff"/>
</svg>
