<svg data-name="Layer 1" xmlns="http://www.w3.org/2000/svg" width="633.4" height="455.8">
  <path d="m144.8 136.5 4 2.6a336.2 336.2 0 0 1 23.4 109.5q.3 6.5.3 13a326.4 326.4 0 0 1-14 95.8l-1.5 5-1.2 3.4-1.3 1.8-.6.8-2.2 3h2.2-2.9c-22.6-.6-45.7-1.7-66.3-11-21.5-9.7-39.7-30.6-38.8-54.2a42.3 42.3 0 0 1 1.4-9.1l1.1-3.7a44.6 44.6 0 0 1 76.5-14c-6.2-24.2-32.7-36.6-56.5-44.1-23.9-7.5-50.8-15.4-63-37.3a48.1 48.1 0 0 1-2-40.5 65 65 0 0 1 31.3-35.6c27.3-13.5 60.4-8.8 88.4 3.3a161.2 161.2 0 0 1 21.6 11.3Z" fill="#f2f2f2"/>
  <path d="M66.6 293.5a100.3 100.3 0 0 1 57.7 25.1 102.7 102.7 0 0 1 29.2 45.8l.9 3 1.6-3 1-2-1.2 3.4-1.3 1.8-.6.8-2.2 3h2.2-2.2l-.2-.9a97 97 0 0 0-104.1-73.4l1.1-3.7a103.7 103.7 0 0 1 18 .1Zm71.2-89.7a110.4 110.4 0 0 1 22.6 22.8 91.6 91.6 0 0 1 8.7 14.6 93 93 0 0 1 3.1 7.4q.3 6.5.3 13a94.6 94.6 0 0 0-2.9-9.7l-2-5.1a103.4 103.4 0 0 0-38.9-45.2 239.5 239.5 0 0 0-58.8-28 271.7 271.7 0 0 0-65-13 2 2 0 0 1-1.9-2 1.7 1.7 0 0 1 .4-1.1 1.4 1.4 0 0 1 1.2-.4l8.2.7A274.9 274.9 0 0 1 79.2 173a221.2 221.2 0 0 1 58.6 30.7Z" fill="#fff"/>
  <circle cx="25.5" cy="91.8" r="7.6" fill="#f2f2f2"/>
  <path fill="#fff" d="M147 161.8h344v293H147z"/>
  <path d="M492 455.8H146v-295h346Zm-344-2h342v-291H148Z" fill="#3f3d56"/>
  <path fill="#22c55e" d="M276 218.8h86v236h-86z"/>
  <path fill="#22c55e" d="M276 218.8h86v236h-86z"/>
  <path opacity=".2" d="M148 183.3v47.5l343 22-1-58.7-342-10.8z"/>
  <path fill="#fff" d="M127 134.8h384v84H127z"/>
  <path d="M512 219.8H126v-86h386Zm-384-2h382v-82H128Z" fill="#3f3d56"/>
  <path fill="#22c55e" d="M276 126.8h86v91h-86z"/>
  <path d="M309.8 47.4c22.7 33.7 1.4 87.8 1.4 87.8s-58.2-.4-81-34.1-1.3-87.8-1.3-87.8 58.2.5 81 34.1Z" fill="#22c55e"/>
  <path d="M320.3 47.4c-22.7 33.7-1.4 87.8-1.4 87.8s58.2-.4 81-34.1 1.3-87.8 1.3-87.8-58.2.5-81 34.1Z" fill="#22c55e"/>
  <circle cx="259" cy="63.8" r="9" fill="#3f3d56"/>
  <circle cx="313" cy="154.8" r="9" fill="#3f3d56"/>
  <circle cx="313" cy="351.8" r="9" fill="#3f3d56"/>
  <circle cx="283" cy="96.8" r="6" fill="#3f3d56"/>
  <circle cx="373" cy="45.8" r="6" fill="#3f3d56"/>
  <circle cx="334" cy="186.8" r="6" fill="#3f3d56"/>
  <circle cx="298" cy="264.8" r="6" fill="#3f3d56"/>
  <circle cx="329" cy="291.8" r="6" fill="#3f3d56"/>
  <circle cx="322" cy="404.8" r="6" fill="#3f3d56"/>
  <path fill="#fff" d="M439.2 299.3h183v155.9h-183z"/>
  <path d="M622.8 455.8H438.7v-157h184Zm-183-1.1h182V299.9h-182Z" fill="#3f3d56"/>
  <path fill="#22c55e" d="M507.9 329.7h45.8v125.6h-45.8z"/>
  <path fill="#22c55e" d="M507.9 329.7h45.8v125.6h-45.8z"/>
  <path opacity=".2" d="M439.8 310.8v25.3l182.5 11.6-.6-31.2-181.9-5.7z"/>
  <path fill="#fff" d="M428.6 285h204.3v44.7H428.6z"/>
  <path d="M633.4 330.2H428v-45.8h205.4Zm-204.3-1h203.3v-43.7H429Z" fill="#3f3d56"/>
  <path fill="#22c55e" d="M507.9 280.7h45.8v48.4h-45.8z"/>
  <path d="M525.8 238.5c12.1 17.9.7 46.7.7 46.7s-31-.2-43-18.2-.7-46.7-.7-46.7 31 .3 43 18.2Z" fill="#22c55e"/>
  <path d="M531.4 238.5c-12.1 17.9-.7 46.7-.7 46.7s31-.2 43-18.2.7-46.7.7-46.7-31 .3-43 18.2Z" fill="#22c55e"/>
  <circle cx="498.8" cy="247.2" r="4.8" fill="#3f3d56"/>
  <circle cx="527.5" cy="295.6" r="4.8" fill="#3f3d56"/>
  <circle cx="527.5" cy="400.4" r="4.8" fill="#3f3d56"/>
  <circle cx="511.6" cy="264.7" r="3.2" fill="#3f3d56"/>
  <circle cx="559.5" cy="237.6" r="3.2" fill="#3f3d56"/>
  <circle cx="538.7" cy="312.6" r="3.2" fill="#3f3d56"/>
  <circle cx="519.6" cy="354.1" r="3.2" fill="#3f3d56"/>
  <circle cx="536.1" cy="368.5" r="3.2" fill="#3f3d56"/>
  <circle cx="532.3" cy="428.6" r="3.2" fill="#3f3d56"/>
  <ellipse cx="571.1" cy="596.3" rx="6.8" ry="21.5" transform="rotate(-64.6 253.9 709.2)" fill="#2f2e41"/>
  <ellipse cx="665.5" cy="623.8" rx="6.8" ry="21.5" transform="rotate(-39.9 218.2 902.5)" fill="#2f2e41"/>
  <circle cx="336.4" cy="394.2" r="43.1" fill="#2f2e41"/>
  <path fill="#2f2e41" d="M341.5 428h13.1v23.4h-13.1zm-26.2 0h13.1v23.4h-13.1z"/>
  <ellipse cx="343.7" cy="451.7" rx="10.9" ry="4.1" fill="#2f2e41"/>
  <ellipse cx="317.5" cy="451.1" rx="10.9" ry="4.1" fill="#2f2e41"/>
  <path d="M322.8 340c3.9-15.5 20.9-24.6 38-20.3s27.8 20.2 24 35.7-16.7 15.5-33.8 11.3-32-11.2-28.2-26.7Z" fill="#e6e6e6"/>
  <circle cx="329.9" cy="385.1" r="14.4" fill="#fff"/>
  <circle cx="324" cy="379.9" r="4.8" fill="#3f3d56"/>
  <path d="M339 415a9.6 9.6 0 1 1-18.9 3.4c-1-5.2 3-7 8.3-8s9.6-.6 10.5 4.6Z" fill="#fff"/>
  <ellipse cx="704.1" cy="285.7" rx="21.5" ry="6.8" transform="rotate(-22.4 2.7 888.6)" fill="#2f2e41"/>
  <ellipse cx="798.5" cy="305.1" rx="6.8" ry="21.5" transform="rotate(-39.9 351.2 583.9)" fill="#2f2e41"/>
  <circle cx="469.4" cy="75.5" r="43.1" fill="#2f2e41"/>
  <path fill="#2f2e41" d="M474.5 109.3h13.1v23.4h-13.1zm-26.2 0h13.1v23.4h-13.1z"/>
  <ellipse cx="476.7" cy="133" rx="10.9" ry="4.1" fill="#2f2e41"/>
  <ellipse cx="450.5" cy="132.5" rx="10.9" ry="4.1" fill="#2f2e41"/>
  <path d="M455.8 21.4c3.9-15.5 20.9-24.6 38-20.4s27.8 20.3 24 35.8S501 52.3 484 48s-32-11.2-28.2-26.7Z" fill="#22c55e"/>
  <circle cx="462.9" cy="66.4" r="14.4" fill="#fff"/>
  <circle cx="457" cy="68.3" r="4.8" fill="#3f3d56"/>
  <path d="M472 96.4a9.6 9.6 0 1 1-18.9 3.4c-1-5.2 3-7 8.3-8s9.6-.6 10.5 4.6Z" fill="#fff"/>
  <circle cx="100.9" cy="394.2" r="43.1" fill="#2f2e41"/>
  <path fill="#2f2e41" d="M81.3 428h13.1v23.4H81.3zm26.1 0h13.1v23.4h-13.1z"/>
  <ellipse cx="92.2" cy="451.7" rx="10.9" ry="4.1" fill="#2f2e41"/>
  <ellipse cx="118.3" cy="451.1" rx="10.9" ry="4.1" fill="#2f2e41"/>
  <path d="M59.1 354.1c-3.5-15.6 7.6-31.3 24.8-35.1s34 5.6 37.5 21.2-8 21.3-25.1 25.2S62.6 369.7 59 354Z" fill="#22c55e"/>
  <ellipse cx="425.3" cy="592.2" rx="23.9" ry="7.5" transform="rotate(-45 15.7 822.9)" fill="#2f2e41"/>
  <ellipse cx="332.6" cy="595.2" rx="7.5" ry="23.9" transform="rotate(-45 -77.3 826.2)" fill="#2f2e41"/>
  <circle cx="99.1" cy="388" r="14.7" fill="#fff"/>
  <circle cx="99.1" cy="388" r="4.9" fill="#3f3d56"/>
  <path d="M110.8 415.3a9.6 9.6 0 1 1-18.9 3.4c-1-5.2 3.1-7 8.3-8s9.6-.6 10.6 4.6Z" fill="#fff"/>
</svg>
